<?xml version="1.0" standalone="no"?>
<!DOCTYPE svg PUBLIC "-//W3C//DTD SVG 20010904//EN"
 "http://www.w3.org/TR/2001/REC-SVG-20010904/DTD/svg10.dtd">
<svg version="1.0" xmlns="http://www.w3.org/2000/svg"
 width="300.000000pt" height="300.000000pt" viewBox="0 0 300.000000 300.000000"
 preserveAspectRatio="xMidYMid meet">
<metadata>
Created by potrace 1.14, written by Peter Selinger 2001-2017
</metadata>
<g transform="translate(0.000000,300.000000) scale(0.100000,-0.100000)"
fill="#000000" stroke="none">
<path d="M312 2092 c2 -4 18 -40 37 -80 l34 -73 166 2 165 1 238 -476 c131
-262 242 -476 246 -476 4 0 73 130 153 288 l146 288 148 -295 147 -296 187
372 c102 204 211 421 241 482 l55 110 165 1 166 0 37 75 c20 42 37 78 37 80 0
3 -111 5 -248 5 l-247 0 -196 -392 -196 -393 -147 293 c-81 161 -150 291 -154
288 -4 -2 -70 -131 -147 -285 -77 -155 -142 -281 -145 -281 -7 0 -380 747
-380 760 0 6 -95 10 -256 10 -141 0 -254 -3 -252 -8z"/>
<path d="M460 1795 c0 -16 732 -1465 740 -1465 5 0 75 129 154 288 l144 287
135 -275 c74 -151 141 -283 149 -292 11 -15 57 71 381 715 202 402 367 735
367 740 0 4 -37 7 -83 7 l-82 0 -286 -572 -286 -573 -147 293 c-80 160 -148
292 -150 292 -3 0 -69 -128 -148 -285 -79 -157 -146 -285 -149 -285 -3 0 -132
254 -287 565 l-281 565 -86 0 c-47 0 -85 -2 -85 -5z"/>
</g>
</svg>
